<svg width="40" height="40" viewBox="0 0 40 40" fill="none" xmlns="http://www.w3.org/2000/svg">
<rect width="39.6033" height="39.6033" rx="19.8016" fill="#1D234E"/>
<path d="M30 20.1887C30 21.1321 29.2453 21.8868 28.3019 21.8868H21.5094V28.3019C21.5094 29.2453 20.7547 30 19.8113 30C18.8679 30 18.1132 29.2453 18.1132 28.3019V21.8868H11.6981C10.7547 21.8868 10 21.1321 10 20.1887C10 19.2453 10.7547 18.4906 11.6981 18.4906H18.1132V11.6981C18.1132 10.7547 18.8679 10 19.8113 10C20.7547 10 21.5094 10.7547 21.5094 11.6981V18.4906H28.3019C29.2453 18.4906 30 19.2453 30 20.1887Z" fill="white"/>
</svg>
