<svg width="12" height="14" viewBox="0 0 12 14" fill="none" xmlns="http://www.w3.org/2000/svg">
<path fill-rule="evenodd" clip-rule="evenodd" d="M1.11464 0.601681L1.10762 0.595046C1.03697 0.524106 1.00203 0.432822 1.01023 0.340588C1.01842 0.248354 1.0691 0.162437 1.15151 0.101092C1.2372 0.0368869 1.34792 0.00128205 1.46275 0.00101035C1.57757 0.00073865 1.68854 0.0358189 1.77465 0.0996173L3.03587 1.04845L4.28655 0.0944567L4.32341 0.0708648L4.33131 0.0664413C4.41735 0.0183596 4.51984 -0.00458868 4.62295 0.00114112C4.72606 0.00687093 4.82406 0.04096 4.9018 0.0981428C5.09313 0.241906 5.09489 0.486671 4.90443 0.631171L3.34393 1.82182L3.30795 1.84615L3.29917 1.85057C3.21304 1.89856 3.1105 1.92138 3.00739 1.91552C2.90427 1.90965 2.80633 1.87543 2.72868 1.81814L1.14624 0.629696L1.11464 0.601681ZM10.741 1.32197L10.7348 1.3146L10.7023 1.28732L9.12077 0.0981428C9.04296 0.0407854 8.94479 0.00659104 8.84149 0.000859535C8.73819 -0.00487196 8.63553 0.0181796 8.54941 0.0664413L8.54151 0.0708648L8.50552 0.0944567L6.94327 1.28511C6.89854 1.31867 6.86281 1.35983 6.83842 1.40586C6.81404 1.45189 6.80156 1.50174 6.8018 1.55212C6.80205 1.6025 6.81503 1.65226 6.83987 1.69812C6.86471 1.74397 6.90085 1.78488 6.9459 1.81814C7.02361 1.8756 7.12173 1.90993 7.22503 1.9158C7.32833 1.92166 7.43105 1.89874 7.51726 1.85057L7.52604 1.84615L7.56115 1.82182L8.81271 0.867827L10.0748 1.81666C10.2503 1.94863 10.5224 1.94789 10.6979 1.81519C10.7802 1.75374 10.8307 1.66777 10.8388 1.57554C10.8468 1.48331 10.8117 1.39282 10.741 1.32197ZM0 3.68631C0 3.53967 0.0693515 3.39903 0.192798 3.29533C0.316245 3.19164 0.483674 3.13338 0.658254 3.13338H11.1903C11.3649 3.13338 11.5323 3.19164 11.6558 3.29533C11.7792 3.39903 11.8486 3.53967 11.8486 3.68631V13.2705C11.8486 13.4171 11.7792 13.5578 11.6558 13.6615C11.5323 13.7652 11.3649 13.8234 11.1903 13.8234H0.658254C0.483674 13.8234 0.316245 13.7652 0.192798 13.6615C0.0693515 13.5578 0 13.4171 0 13.2705V3.68631ZM5.26604 12.7176V4.23925H1.31651V12.7176H5.26604ZM6.58254 12.7176H10.5321V4.23925H6.58254V12.7176Z" fill="#1D234E"/>
</svg>
