<svg width="13" height="12" viewBox="0 0 13 12" fill="none" xmlns="http://www.w3.org/2000/svg">
<path fill-rule="evenodd" clip-rule="evenodd" d="M0 4.9764V0.552934C0 0.406287 0.0693515 0.265646 0.192798 0.16195C0.316245 0.0582553 0.483674 0 0.658254 0H12.068C12.2426 0 12.41 0.0582553 12.5335 0.16195C12.6569 0.265646 12.7263 0.406287 12.7263 0.552934V11.243C12.7263 11.3896 12.6569 11.5303 12.5335 11.634C12.41 11.7377 12.2426 11.7959 12.068 11.7959C11.8934 11.7959 11.726 11.7377 11.6025 11.634C11.4791 11.5303 11.4097 11.3896 11.4097 11.243V9.95281H1.31651V11.243C1.31651 11.3896 1.24716 11.5303 1.12371 11.634C1.00026 11.7377 0.832834 11.7959 0.658254 11.7959C0.483674 11.7959 0.316245 11.7377 0.192798 11.634C0.0693515 11.5303 0 11.3896 0 11.243V4.9764ZM11.4097 5.52934H1.31651V8.84694H11.4097V5.52934ZM11.4097 4.42347V1.10587H1.31651V4.42347H11.4097ZM5.04662 2.80153C5.04662 2.65488 5.11597 2.51424 5.23942 2.41055C5.36286 2.30685 5.53029 2.2486 5.70487 2.2486H7.02138C7.19596 2.2486 7.36339 2.30685 7.48684 2.41055C7.61028 2.51424 7.67963 2.65488 7.67963 2.80153C7.67963 2.94818 7.61028 3.08882 7.48684 3.19251C7.36339 3.29621 7.19596 3.35446 7.02138 3.35446H5.70487C5.53029 3.35446 5.36286 3.29621 5.23942 3.19251C5.11597 3.08882 5.04662 2.94818 5.04662 2.80153ZM5.70487 6.81952C5.53029 6.81952 5.36286 6.87777 5.23942 6.98147C5.11597 7.08516 5.04662 7.2258 5.04662 7.37245C5.04662 7.5191 5.11597 7.65974 5.23942 7.76343C5.36286 7.86713 5.53029 7.92538 5.70487 7.92538H7.02138C7.19596 7.92538 7.36339 7.86713 7.48684 7.76343C7.61028 7.65974 7.67963 7.5191 7.67963 7.37245C7.67963 7.2258 7.61028 7.08516 7.48684 6.98147C7.36339 6.87777 7.19596 6.81952 7.02138 6.81952H5.70487Z" fill="#1D234E"/>
</svg>
