<svg width="15" height="15" viewBox="0 0 15 15" fill="none" xmlns="http://www.w3.org/2000/svg">
<path d="M7.60645 9.4114V7.53928C7.60645 7.44535 7.65087 7.35526 7.72994 7.28884C7.80901 7.22242 7.91625 7.18511 8.02807 7.18511H13.0876C13.1994 7.18511 13.3067 7.1478 13.3857 7.08138C13.4648 7.01496 13.5092 6.92487 13.5092 6.83094V3.39128C13.5092 3.29735 13.4648 3.20726 13.3857 3.14084C13.3067 3.07442 13.1994 3.03711 13.0876 3.03711H11.8227" stroke="#1D234E" stroke-width="1.0625" stroke-linecap="round"/>
<path d="M10.7903 0.882812H2.33495C1.86924 0.882812 1.4917 1.19994 1.4917 1.59115V4.48115C1.4917 4.87235 1.86924 5.18948 2.33495 5.18948H10.7903C11.256 5.18948 11.6335 4.87235 11.6335 4.48115V1.59115C11.6335 1.19994 11.256 0.882812 10.7903 0.882812Z" stroke="#1D234E" stroke-width="1.0625"/>
<path d="M8.02782 9.41016H7.18456C6.71885 9.41016 6.34131 9.72729 6.34131 10.1185V13.4073C6.34131 13.7985 6.71885 14.1156 7.18456 14.1156H8.02782C8.49353 14.1156 8.87107 13.7985 8.87107 13.4073V10.1185C8.87107 9.72729 8.49353 9.41016 8.02782 9.41016Z" stroke="#1D234E" stroke-width="1.0625"/>
</svg>
