<svg width="18" height="15" viewBox="0 0 18 15" fill="none" xmlns="http://www.w3.org/2000/svg">
<path fill-rule="evenodd" clip-rule="evenodd" d="M6.78684 0.00442341C6.94479 0.0215441 7.08999 0.0861856 7.19554 0.186366C7.30108 0.286547 7.35981 0.415473 7.36084 0.549247L7.35557 0.623709L7.2678 1.19507C7.24842 1.33549 7.16576 1.46434 7.03679 1.55514C6.90782 1.64595 6.74235 1.69182 6.57438 1.68332C6.4064 1.67483 6.24867 1.61262 6.13361 1.50947C6.01854 1.40632 5.95487 1.27008 5.95568 1.12872L5.96183 1.05352L6.0496 0.482158C6.06996 0.349606 6.14678 0.227734 6.26586 0.139093C6.38494 0.0504512 6.53821 0.00103955 6.69732 0L6.78684 0.00442341ZM10.567 1.68755C10.4429 1.58459 10.2752 1.52722 10.1007 1.52805C9.92628 1.52888 9.75937 1.58784 9.63664 1.69198L9.26626 2.00678L9.20307 2.06871C9.10596 2.18136 9.06295 2.32061 9.08263 2.45871C9.1023 2.5968 9.1832 2.7236 9.30921 2.81382C9.43522 2.90404 9.59708 2.95106 9.76252 2.9455C9.92796 2.93995 10.0848 2.88222 10.2019 2.78384L10.5722 2.46977L10.6354 2.4071C10.7285 2.30017 10.7728 2.16871 10.7603 2.03665C10.7477 1.90459 10.6791 1.78071 10.567 1.68755ZM3.81943 2.94087C5.59672 1.81805 8.38771 2.3179 9.15568 3.86021C9.18904 3.92721 9.20638 3.99907 9.20668 4.0717C9.20699 4.14432 9.19026 4.21628 9.15746 4.28347C9.12465 4.35067 9.07642 4.41177 9.0155 4.46331C8.95458 4.51484 8.88217 4.55579 8.80242 4.58382C8.64134 4.64043 8.46008 4.64096 8.29853 4.58531C8.13698 4.52966 8.00837 4.42239 7.94098 4.28708C7.5197 3.43925 5.72925 3.11855 4.61109 3.82483C3.64565 4.43453 3.52014 5.46151 4.04236 6.13019L4.11433 6.21497C4.22036 6.33151 4.26693 6.47865 4.2438 6.62403C4.22068 6.76941 4.12975 6.90112 3.99101 6.99019C3.85228 7.07925 3.67711 7.11837 3.50404 7.09895C3.33097 7.07952 3.17417 7.00314 3.06814 6.8866C2.04127 5.75862 2.19661 3.96638 3.81943 2.94087ZM16.0235 6.41772C15.9568 6.07209 15.7458 5.75768 15.4284 5.53075C15.111 5.30382 14.7078 5.17919 14.2909 5.17915H6.9062C6.48858 5.17915 6.08464 5.30423 5.76694 5.53192C5.44923 5.7596 5.23858 6.07498 5.1728 6.4214L3.91422 13.0566C3.87423 13.2672 3.88911 13.4826 3.95783 13.6879C4.02655 13.8932 4.14747 14.0836 4.31225 14.2458C4.47704 14.4081 4.68177 14.5384 4.91231 14.6277C5.14285 14.7171 5.39373 14.7633 5.64762 14.7633H15.5706C15.8248 14.7633 16.0761 14.7169 16.3069 14.6273C16.5376 14.5377 16.7425 14.407 16.9073 14.2444C17.072 14.0817 17.1928 13.8909 17.2611 13.6852C17.3295 13.4795 17.3438 13.2637 17.3031 13.0529L16.0235 6.41772ZM11.27 6.28501H14.2909L14.3699 6.29091C14.459 6.3047 14.5408 6.34129 14.6041 6.39567C14.6674 6.45005 14.7092 6.51956 14.7236 6.59466L15.1976 9.04968H11.27V6.28501ZM9.95348 6.28501H6.9062C6.81529 6.28496 6.72661 6.30862 6.6524 6.35273C6.57819 6.39684 6.52212 6.45922 6.49194 6.53125L6.47263 6.59539L6.00747 9.05042H9.95348V6.28501ZM9.95348 10.1555H5.7977L5.21405 13.2306C5.19589 13.3258 5.22284 13.4231 5.28912 13.5018C5.3554 13.5805 5.45574 13.6343 5.56863 13.6516L5.64762 13.6575H9.95348V10.1555ZM11.27 13.6575H15.5706C15.6855 13.6577 15.796 13.6199 15.8781 13.5523C15.9602 13.4847 16.0073 13.3928 16.0094 13.2962L16.0033 13.2299L15.4108 10.1555H11.27V13.6575ZM2.23435 0.721763C2.30696 0.682355 2.38811 0.655348 2.47314 0.642283C2.55818 0.629218 2.64545 0.630351 2.72996 0.645618C2.81448 0.660885 2.89459 0.689986 2.96571 0.73126C3.03684 0.772533 3.09759 0.825172 3.1445 0.886168L3.48855 1.33368L3.53594 1.40593C3.6054 1.53322 3.61477 1.67792 3.56216 1.81079C3.50955 1.94367 3.39889 2.05483 3.2525 2.12183C3.10612 2.18884 2.93492 2.20669 2.77348 2.17179C2.61204 2.13689 2.47237 2.05183 2.38268 1.93379L2.03863 1.48629L1.99124 1.41404C1.92608 1.29323 1.91479 1.15678 1.95942 1.02957C2.00405 0.90235 2.10162 0.793585 2.23435 0.721763ZM0.658054 4.42937C0.491275 4.42932 0.330734 4.37611 0.208868 4.28046C0.0870028 4.18482 0.0128995 4.05389 0.00153187 3.91412C-0.00983573 3.77435 0.0423799 3.63617 0.147628 3.5275C0.252876 3.41882 0.403309 3.34776 0.568531 3.32866L0.658054 3.3235H1.27857C1.44535 3.32354 1.60589 3.37676 1.72775 3.4724C1.84962 3.56804 1.92372 3.69898 1.93509 3.83875C1.94646 3.97851 1.89424 4.1167 1.78899 4.22537C1.68375 4.33405 1.53331 4.40511 1.36809 4.42421L1.27857 4.42937H0.658054ZM0.359645 7.11736C0.392633 7.18453 0.441056 7.24557 0.502146 7.297C0.563236 7.34844 0.635795 7.38926 0.715675 7.41712C0.795555 7.44499 0.881189 7.45936 0.967684 7.45941C1.05418 7.45946 1.13984 7.44519 1.21976 7.41742L1.74637 7.23458L1.82536 7.20141C1.96773 7.13011 2.07284 7.01632 2.11969 6.88276C2.16654 6.74921 2.15168 6.60573 2.07809 6.48097C2.0045 6.35621 1.87758 6.25937 1.7227 6.20979C1.56781 6.16021 1.39636 6.16153 1.24258 6.2135L0.716858 6.3956L0.63699 6.42877C0.499504 6.49602 0.395662 6.60281 0.344675 6.7294C0.293688 6.85599 0.299006 6.99381 0.359645 7.11736Z" fill="#1D234E"/>
</svg>
