<svg width="17" height="15" viewBox="0 0 17 15" fill="none" xmlns="http://www.w3.org/2000/svg">
<path fill-rule="evenodd" clip-rule="evenodd" d="M6.58613 0.0162211C6.15336 -0.0372026 5.71217 0.042323 5.3436 0.240192C4.97502 0.438061 4.70381 0.740988 4.57977 1.09334C4.45038 1.46121 4.47263 1.855 4.64291 2.21092C4.8132 2.56684 5.12154 2.86405 5.518 3.05441L9.23231 4.84001L9.27795 4.8695C9.29847 4.88659 9.31477 4.90692 9.32592 4.92931C9.33706 4.9517 9.34283 4.97573 9.3429 5V6.82247L2.43561 5.47626L2.30221 5.45488C1.99384 5.41863 1.67963 5.46198 1.40126 5.57916C1.12288 5.69634 0.893476 5.88183 0.743461 6.11102L0.190527 6.95443L0.131723 7.05396C0.0454901 7.2174 0.000636208 7.39412 6.71899e-06 7.57289C-0.00062277 7.75167 0.0429859 7.9286 0.128066 8.09247C0.213147 8.25634 0.337842 8.40357 0.494243 8.52482C0.650643 8.64607 0.835335 8.73869 1.0366 8.79681L0.96639 8.97964L0.930405 9.08802C0.847633 9.39029 0.897268 9.7075 1.07022 9.98154C1.24317 10.2556 1.52786 10.4681 1.87215 10.5802L3.32557 11.0528L3.45108 11.0889C3.77997 11.1692 4.13136 11.1548 4.4494 11.0481C4.76745 10.9413 5.03391 10.7484 5.20643 10.4998L5.55749 9.99557L9.3429 10.9982V11.4678C8.94912 11.5378 8.59594 11.7194 8.34252 11.982C8.0891 12.2447 7.95084 12.5725 7.95091 12.9106V13.6479C7.95091 13.8434 8.04338 14.0309 8.20797 14.1692C8.37257 14.3075 8.59581 14.3851 8.82858 14.3851H15.85C16.0827 14.3851 16.306 14.3075 16.4706 14.1692C16.6352 14.0309 16.7276 13.8434 16.7276 13.6479V12.9106C16.7278 12.5872 16.6013 12.2727 16.3677 12.0156C16.1341 11.7584 15.8063 11.573 15.4348 11.4878V3.30286L15.4304 3.17458C15.3973 2.73685 15.1961 2.31994 14.857 1.98642C14.5178 1.6529 14.0591 1.42076 13.5496 1.32483L6.71953 0.0368641L6.58613 0.0162211ZM14.1183 11.4361V3.30286C14.1183 3.10931 14.0457 2.92068 13.9108 2.76373C13.776 2.60679 13.5857 2.48949 13.367 2.42849L13.2617 2.40416L6.43078 1.11619C6.3072 1.09313 6.1778 1.11027 6.06868 1.16418C5.95955 1.21808 5.87881 1.30473 5.84274 1.40666C5.80189 1.52228 5.80366 1.64558 5.84784 1.76033C5.89202 1.87509 5.97653 1.97591 6.09024 2.04954L6.17186 2.09451L9.88617 3.88012C10.325 4.09024 10.6085 4.46697 10.6533 4.88499L10.6594 5V11.4361H14.1183ZM2.13808 6.55337L9.3429 7.95782V9.83854L1.47017 7.75213L1.43068 7.73739C1.37975 7.71388 1.342 7.67437 1.32571 7.62752C1.30942 7.58066 1.31592 7.53029 1.34379 7.48746L1.89672 6.64405L1.93095 6.60498C1.95733 6.58197 1.99037 6.56512 2.02683 6.55608C2.0633 6.54703 2.10106 6.5461 2.13808 6.55337ZM2.21883 9.32025L2.29167 9.1293L4.27083 9.65422L4.06984 9.94249L4.03824 9.97787C4.00831 10.004 3.96986 10.0222 3.9277 10.03C3.88555 10.0379 3.84157 10.0351 3.80127 10.0221L2.34785 9.5488L2.29782 9.52668C2.26037 9.5037 2.23255 9.47134 2.21836 9.43425C2.20417 9.39717 2.20433 9.35726 2.21883 9.32025ZM14.9714 12.542H9.70537C9.60281 12.5422 9.50356 12.5725 9.42483 12.6277C9.34611 12.6829 9.2929 12.7595 9.27444 12.8443L9.26742 12.9106L9.26654 13.2793H15.4102V12.9106C15.4103 12.8244 15.3743 12.7408 15.3085 12.6745C15.2428 12.6082 15.1514 12.5634 15.0504 12.5479L14.9714 12.542Z" fill="#1D234E"/>
</svg>
