<svg width="18" height="17" viewBox="0 0 18 17" fill="none" xmlns="http://www.w3.org/2000/svg">
<path d="M6.70532 6.375C6.5935 6.375 6.48625 6.41231 6.40718 6.47873C6.32811 6.54515 6.28369 6.63524 6.28369 6.72917C6.28369 6.8231 6.32811 6.91318 6.40718 6.9796C6.48625 7.04602 6.5935 7.08333 6.70532 7.08333H14.2946C14.4064 7.08333 14.5137 7.04602 14.5927 6.9796C14.6718 6.91318 14.7162 6.8231 14.7162 6.72917C14.7162 6.63524 14.6718 6.54515 14.5927 6.47873C14.5137 6.41231 14.4064 6.375 14.2946 6.375H6.70532Z" fill="#1D234E"/>
<path fill-rule="evenodd" clip-rule="evenodd" d="M3.12158 2.125C3.12158 1.9841 3.18821 1.84898 3.30682 1.74935C3.42543 1.64972 3.58629 1.59375 3.75402 1.59375H17.2461C17.4138 1.59375 17.5747 1.64972 17.6933 1.74935C17.8119 1.84898 17.8785 1.9841 17.8785 2.125V8.5C17.8785 8.6409 17.8119 8.77602 17.6933 8.87565C17.5747 8.97528 17.4138 9.03125 17.2461 9.03125H3.75402C3.58629 9.03125 3.42543 8.97528 3.30682 8.87565C3.18821 8.77602 3.12158 8.6409 3.12158 8.5V2.125ZM16.6136 2.65625H4.38646V7.96875H16.6136V2.65625Z" fill="#1D234E"/>
<path d="M15.4879 10.8226C15.5677 10.8421 15.6422 10.8745 15.707 10.9182C15.7719 10.9618 15.8259 11.0158 15.8659 11.077C15.9059 11.1381 15.9312 11.2053 15.9403 11.2747C15.9493 11.3441 15.942 11.4143 15.9188 11.4813C15.853 11.6726 15.8395 11.9694 15.9846 12.218C16.1085 12.4305 16.4003 12.6961 17.1736 12.7882C17.3373 12.8101 17.4843 12.8852 17.5829 12.9972C17.6814 13.1093 17.7236 13.2493 17.7004 13.3873C17.6772 13.5252 17.5904 13.6499 17.4587 13.7346C17.3271 13.8193 17.1611 13.8572 16.9965 13.8401C15.8817 13.7076 15.1885 13.2663 14.8487 12.6855C14.5308 12.1408 14.5747 11.5593 14.7045 11.1838C14.7515 11.0486 14.8605 10.9345 15.0076 10.8668C15.1546 10.799 15.3269 10.7831 15.4879 10.8226ZM12.3746 11.3184C12.4178 11.1841 12.3966 11.0409 12.3154 10.9197C12.2343 10.7984 12.0998 10.7087 11.9408 10.6698C11.7817 10.6309 11.6109 10.646 11.465 10.7118C11.319 10.7776 11.2097 10.8888 11.1603 11.0216C10.8989 11.7781 11.044 12.7457 11.5035 13.6403C11.969 14.547 12.7861 15.4416 13.9692 16.0381C14.1129 16.1089 14.2841 16.1293 14.4456 16.0947C14.6071 16.0601 14.7458 15.9733 14.8316 15.8533C14.9173 15.7333 14.9433 15.5897 14.9037 15.4537C14.8641 15.3177 14.7622 15.2004 14.6202 15.1271C13.6951 14.6611 13.0408 13.952 12.6647 13.2196C12.2827 12.4758 12.2195 11.7682 12.3746 11.3184ZM8.70055 10.6597C8.62075 10.6791 8.54629 10.7116 8.48143 10.7553C8.41658 10.7989 8.3626 10.8529 8.32258 10.914C8.28256 10.9752 8.25729 11.0424 8.24821 11.1118C8.23912 11.1812 8.24641 11.2514 8.26965 11.3184C8.42481 11.7682 8.36156 12.4751 7.97957 13.2196C7.60348 13.952 6.94911 14.6611 6.02322 15.1271C5.95114 15.1627 5.88816 15.2099 5.83792 15.266C5.78768 15.3221 5.75118 15.386 5.73053 15.454C5.70988 15.5221 5.70548 15.5928 5.7176 15.6623C5.72971 15.7318 5.7581 15.7985 5.80112 15.8587C5.84413 15.9189 5.90093 15.9714 5.96822 16.013C6.03551 16.0546 6.11195 16.0847 6.19314 16.1013C6.27433 16.118 6.35865 16.121 6.44122 16.1101C6.52379 16.0993 6.60298 16.0748 6.67421 16.0381C7.85814 15.4416 8.67525 14.547 9.14073 13.6403C9.59946 12.7457 9.74534 11.7774 9.48394 11.0216C9.43714 10.8864 9.32834 10.7723 9.18144 10.7044C9.03454 10.6366 8.86158 10.6205 8.70055 10.6597ZM3.75571 12.7818C3.58798 12.7815 3.42694 12.8371 3.30801 12.9364C3.18909 13.0358 3.12203 13.1708 3.12158 13.3117C3.12114 13.4526 3.18734 13.5878 3.30563 13.6877C3.42392 13.7876 3.5846 13.844 3.75234 13.8443C4.21781 13.8443 4.89495 13.7197 5.43041 13.3117C5.99961 12.8775 6.3133 12.1953 6.15561 11.2582C6.12955 11.1206 6.0402 10.9972 5.90682 10.9144C5.77343 10.8316 5.60668 10.7962 5.44247 10.8157C5.27827 10.8352 5.12976 10.9081 5.02893 11.0187C4.92809 11.1293 4.88301 11.2687 4.90338 11.407C5.013 12.0565 4.7887 12.3661 4.58041 12.5247C4.33587 12.711 3.99351 12.7818 3.75571 12.7818Z" fill="#1D234E"/>
</svg>
