<svg width="14" height="12" viewBox="0 0 14 12" fill="none" xmlns="http://www.w3.org/2000/svg">
<path fill-rule="evenodd" clip-rule="evenodd" d="M0 3.27108C0 3.56433 0.283333 3.80233 0.63244 3.80233H0.815427V10.8049C0.815427 11.0989 1.09876 11.3362 1.44787 11.3362H12.0476C12.2153 11.3362 12.3762 11.2802 12.4948 11.1806C12.6134 11.0809 12.68 10.9458 12.68 10.8049V3.80233H12.863C13.0307 3.80233 13.1916 3.74636 13.3102 3.64673C13.4288 3.5471 13.4954 3.41198 13.4954 3.27108V0.53125C13.4954 0.390354 13.4288 0.255228 13.3102 0.155599C13.1916 0.0559708 13.0307 0 12.863 0H0.63244C0.464707 0 0.303843 0.0559708 0.185237 0.155599C0.0666318 0.255228 0 0.390354 0 0.53125V3.27108ZM1.26488 2.73983V1.0625H12.2306V2.73983H1.26488ZM2.08031 10.2737V3.80233H11.4151V10.2737H2.08031ZM5.34201 4.94842C5.17428 4.94842 5.01342 5.00439 4.89481 5.10402C4.77621 5.20365 4.70957 5.33877 4.70957 5.47967C4.70957 5.62056 4.77621 5.75569 4.89481 5.85532C5.01342 5.95495 5.17428 6.01092 5.34201 6.01092H8.15427C8.322 6.01092 8.48286 5.95495 8.60147 5.85532C8.72007 5.75569 8.78671 5.62056 8.78671 5.47967C8.78671 5.33877 8.72007 5.20365 8.60147 5.10402C8.48286 5.00439 8.322 4.94842 8.15427 4.94842H5.34201Z" fill="#1D234E"/>
</svg>
